# xmcd CD database file
#
# Track frame offsets:
#	150
#	20282
#	40356
#	52625
#	75724
#	91332
#	100239
#	119480
#	133039
#	150733
#
# Disc length: 2195 seconds
#
# Revision: 1
# Processed by: cddbd v1.5.1PL0 Copyright (c) Steve Scherf et al.
# Submitted via: CDex 1.51
#
DISCID=7408910a
DTITLE=Various Artist - Pure Dinner Jazz Moods [CD4]
DYEAR=2004
DGENRE=Jazz
TTITLE0=Anita Baker - Sweet Love
TTITLE1=Roberta Flack - First Time Ever I Saw Your Face
TTITLE2=Sarah Vaughn - Moonlight In Vermont
TTITLE3=Candy Dulfer - Sax-A-Go-Go
TTITLE4=Timmy Thomas - Why Can't We Live Together
TTITLE5=Tony Bennett - Rags To Riches
TTITLE6=Celine Dion - Falling Into You
TTITLE7=Al Jarreau - Moonlighting
TTITLE8=Johnny Mathis - When A Child Is Born
TTITLE9=Alison Moyet - That Ole Devil Called Love
EXTD=YEAR: 2004
EXTT0=
EXTT1=
EXTT2=
EXTT3=
EXTT4=
EXTT5=
EXTT6=
EXTT7=
EXTT8=
EXTT9=
PLAYORDER=
